<svg width="222" height="39" viewBox="0 0 222 39" fill="none" xmlns="http://www.w3.org/2000/svg">
<g filter="url(#filter0_d_5_13)">
<path d="M19.52 30.4C14.88 30.4 11.76 27.2 10.4 20.16L7.72 6C7.2 3.28 5.92 2.52 4.16 2.52V2H14.64V2.52C13 2.52 11.8 3.28 12.32 6L14.8 19.08C15.8 24.32 17.6 26.96 21.08 26.96C25.36 26.96 30.28 21.52 30.24 14.16C30.2 8.56 27.64 5.16 24.72 5.16C22.76 5.16 22.52 6.44 20.68 6.52C19.28 6.56 18.16 5.44 18.16 4.08C18.16 2.76 19.12 1.56 21.32 1.56C26 1.56 30.96 5.48 31.08 14.08C31.16 22.36 26.16 30.4 19.52 30.4ZM37.3038 6.28C35.6238 6.28 34.5038 5.08 34.5038 3.36C34.5038 1.76 35.6238 0.599999 37.3038 0.599999C39.0238 0.599999 40.1438 1.76 40.1438 3.36C40.1438 5.08 39.0238 6.28 37.3038 6.28ZM32.7038 30V29.48C34.3038 29.48 35.5038 28.72 35.5038 25.96V14.08C35.5038 12.12 34.7038 11.48 32.8638 11.44V10.92C34.9837 10.76 37.3838 10.32 39.4638 9.36L39.8238 9.56V25.96C39.8238 28.72 40.9838 29.48 42.6237 29.48V30H32.7038ZM44.4163 30.48L43.7363 22.04L44.2563 21.92C45.1763 24.68 47.2963 29.68 51.7763 29.72C54.3363 29.72 55.8563 28.2 55.8963 26.28C55.8963 24.32 54.6163 23.16 51.4163 22.04L49.0163 21.08C45.8163 19.88 43.8963 18.08 43.9363 15.04C44.0163 11.76 47.0963 9.32 51.0163 9.36C54.7363 9.4 56.3763 11.76 57.1763 9.12L57.7363 9.08L58.2563 16.92L57.6963 17C56.8963 14.24 54.4162 10 50.9363 9.96C48.6963 9.92 47.2963 11.44 47.2963 13.24C47.2963 15.04 48.6563 16.28 51.4963 17.28L53.8563 18.24C57.4963 19.6 59.2563 21.36 59.1763 24.2C59.0963 28.2 55.5363 30.4 51.9763 30.36C47.8163 30.28 46.0163 27.96 45.0163 30.44L44.4163 30.48ZM64.4913 6.28C62.8113 6.28 61.6913 5.08 61.6913 3.36C61.6913 1.76 62.8113 0.599999 64.4913 0.599999C66.2113 0.599999 67.3313 1.76 67.3313 3.36C67.3313 5.08 66.2113 6.28 64.4913 6.28ZM59.8913 30V29.48C61.4913 29.48 62.6913 28.72 62.6913 25.96V14.08C62.6913 12.12 61.8913 11.48 60.0513 11.44V10.92C62.1712 10.76 64.5713 10.32 66.6513 9.36L67.0113 9.56V25.96C67.0113 28.72 68.1713 29.48 69.8112 29.48V30H59.8913ZM80.1481 30.4C74.4681 30.4 69.9881 25.76 69.9881 19.76C69.9881 13.44 74.6281 9.32 80.0681 9.32C85.5881 9.32 90.1481 13.72 90.1481 19.84C90.1481 26.08 85.7081 30.4 80.1481 30.4ZM74.6681 20.64C75.3881 26.2 78.0681 30.04 81.3881 29.6C84.7481 29.16 86.1881 24.52 85.4281 18.88C84.7081 13.32 82.0281 9.64 78.7881 10.12C75.4281 10.6 73.9881 15.2 74.6681 20.64ZM103.764 30V29.48C105.644 29.48 107.004 28.72 106.644 26L105.404 16.84C104.964 13.68 103.684 11.72 101.244 11.72C99.1238 11.72 97.5238 13.72 97.3238 16.08V25.96C97.3238 28.72 98.4838 29.48 100.124 29.48V30H90.2038V29.48C91.8038 29.48 93.0038 28.72 93.0038 25.96V14.08C93.0038 12.12 92.2038 11.48 90.3638 11.44V10.92C92.4837 10.76 94.8838 10.32 96.9638 9.36L97.3238 9.56V14.36C98.0438 11.6 100.284 9.32 103.364 9.32C106.724 9.32 109.044 11.6 109.764 16.72L111.124 26C111.484 28.72 112.604 29.48 114.164 29.48V30H103.764ZM114.079 30V29.48C115.719 29.48 116.879 28.72 116.879 25.96V6.04C116.879 3.28 115.679 2.52 114.079 2.52V2H124.319V2.52C122.679 2.52 121.519 3.28 121.519 6.04L121.559 25.96C121.559 28.72 122.719 29.48 124.359 29.48V30H114.079ZM138.412 30V29.48C140.292 29.48 141.652 28.72 141.292 26L140.052 16.84C139.612 13.68 138.332 11.72 135.892 11.72C133.772 11.72 132.172 13.72 131.972 16.08V25.96C131.972 28.72 133.132 29.48 134.772 29.48V30H124.852V29.48C126.452 29.48 127.652 28.72 127.652 25.96V14.08C127.652 12.12 126.852 11.48 125.012 11.44V10.92C127.132 10.76 129.532 10.32 131.612 9.36L131.972 9.56V14.36C132.692 11.6 134.932 9.32 138.012 9.32C141.372 9.32 143.692 11.6 144.412 16.72L145.772 26C146.132 28.72 147.252 29.48 148.812 29.48V30H138.412ZM156.899 30.4C153.019 30.4 150.899 27.72 149.979 22.28L148.579 13.72C148.139 11 146.979 10.24 145.339 10.24V9.72H155.099V10.24C153.579 10.24 152.419 11 152.859 13.72L154.059 21.08C154.699 25.12 155.979 27.6 158.939 27.6C162.099 27.6 165.339 23.76 165.339 18.88C165.339 14.52 163.139 12.12 159.939 13.36C158.579 13.88 157.139 13.08 157.099 11.6C157.019 10.4 157.779 9.36 159.459 9.36C162.619 9.36 166.019 12.08 166.019 18.24C166.019 24.96 161.659 30.4 156.899 30.4ZM177.431 30.4C171.831 30.4 168.191 25.64 168.191 19.96C168.191 13.88 172.551 9.32 177.911 9.32C182.671 9.32 185.431 12.88 185.431 17H172.431C172.391 17.24 172.391 17.44 172.391 17.68C172.391 23.36 175.191 27.2 179.631 27.16C182.951 27.16 185.151 24.92 185.791 21.92L186.351 22C185.631 26.76 182.151 30.4 177.431 30.4ZM172.471 16.32H179.471C180.671 16.32 181.111 15.76 181.111 14.52C181.111 12.64 180.151 9.92 177.591 9.92C175.151 9.92 172.951 12.84 172.471 16.32ZM188.713 30.48L188.033 22.04L188.553 21.92C189.473 24.68 191.593 29.68 196.073 29.72C198.633 29.72 200.153 28.2 200.193 26.28C200.193 24.32 198.913 23.16 195.713 22.04L193.313 21.08C190.113 19.88 188.193 18.08 188.233 15.04C188.313 11.76 191.393 9.32 195.313 9.36C199.033 9.4 200.673 11.76 201.473 9.12L202.033 9.08L202.553 16.92L201.993 17C201.193 14.24 198.713 10 195.233 9.96C192.993 9.92 191.593 11.44 191.593 13.24C191.593 15.04 192.953 16.28 195.793 17.28L198.153 18.24C201.793 19.6 203.553 21.36 203.473 24.2C203.393 28.2 199.833 30.4 196.273 30.36C192.113 30.28 190.313 27.96 189.313 30.44L188.713 30.48ZM212.55 30.4C208.63 30.4 206.79 27.48 206.79 23.72V11.32H204.27V10.76C207.47 10.44 209.95 8.4 210.59 4.76H211.15V9.72H217.11L216.43 11.32H211.15V23.28C211.15 25.96 212.35 27.88 214.35 27.88C216.07 27.88 217.07 26.48 217.39 25L217.87 25.08C217.51 27.96 215.43 30.4 212.55 30.4Z" fill="#1E1E1E"/>
</g>
<defs>
<filter id="filter0_d_5_13" x="0.160034" y="0.600006" width="221.71" height="37.88" filterUnits="userSpaceOnUse" color-interpolation-filters="sRGB">
<feFlood flood-opacity="0" result="BackgroundImageFix"/>
<feColorMatrix in="SourceAlpha" type="matrix" values="0 0 0 0 0 0 0 0 0 0 0 0 0 0 0 0 0 0 127 0" result="hardAlpha"/>
<feOffset dy="4"/>
<feGaussianBlur stdDeviation="2"/>
<feComposite in2="hardAlpha" operator="out"/>
<feColorMatrix type="matrix" values="0 0 0 0 0 0 0 0 0 0 0 0 0 0 0 0 0 0 0.25 0"/>
<feBlend mode="normal" in2="BackgroundImageFix" result="effect1_dropShadow_5_13"/>
<feBlend mode="normal" in="SourceGraphic" in2="effect1_dropShadow_5_13" result="shape"/>
</filter>
</defs>
</svg>
