<svg width="164" height="35" viewBox="0 0 164 35" fill="none" xmlns="http://www.w3.org/2000/svg">
<g filter="url(#filter0_d_1_3)">
<path d="M8.248 26L4.288 0.368H10.696L12.136 20.132H12.208L14.8 0.368H20.38L16.096 26H8.248ZM26.5824 26H20.8944V5.408H26.5824V26ZM26.5824 4.004H20.8944V0.368H26.5824V4.004ZM41.9581 12.68H36.2701V10.448C36.2701 9.584 35.9821 8.9 35.0821 8.9C34.1821 8.9 33.8941 9.584 33.8941 10.448C33.8941 13.976 41.8501 13.328 41.8501 20.024C41.8501 24.092 39.4021 26.252 34.6501 26.252C31.0141 26.252 28.2061 24.848 28.2061 21.14V17.864H33.8941V20.96C33.8941 21.824 34.1821 22.508 35.0821 22.508C35.9821 22.508 36.2701 21.824 36.2701 20.96C36.2701 16.064 28.2061 17.576 28.2061 10.88C28.2061 6.776 31.1221 5.156 34.8661 5.156C39.1861 5.156 41.9581 6.848 41.9581 10.304V12.68ZM49.2582 26H43.5702V5.408H49.2582V26ZM49.2582 4.004H43.5702V0.368H49.2582V4.004ZM56.5698 10.34V21.068C56.5698 21.824 56.8578 22.508 57.7578 22.508C58.6578 22.508 58.9458 21.824 58.9458 21.068V10.34C58.9458 9.584 58.6578 8.9 57.7578 8.9C56.8578 8.9 56.5698 9.584 56.5698 10.34ZM64.6338 10.952V20.78C64.6338 24.596 61.3938 26.252 57.7578 26.252C54.1218 26.252 50.8818 24.596 50.8818 20.78V10.952C50.8818 7.244 53.3298 5.156 57.7578 5.156C62.1858 5.156 64.6338 7.244 64.6338 10.952ZM71.898 5.408V7.964H71.97C72.51 6.164 73.878 5.156 76.11 5.156C78.666 5.156 79.962 6.92 79.962 9.872V26H74.274V11.708C74.274 10.808 74.202 9.836 73.122 9.836C72.042 9.836 71.898 10.808 71.898 11.708V26H66.21V5.408H71.898Z" fill="#D9D9D9"/>
<path d="M87.4061 26H81.4301V0.368H87.4061V26ZM94.5738 5.408V7.964H94.6458C95.1858 6.164 96.5538 5.156 98.7858 5.156C101.342 5.156 102.638 6.92 102.638 9.872V26H96.9498V11.708C96.9498 10.808 96.8778 9.836 95.7978 9.836C94.7178 9.836 94.5738 10.808 94.5738 11.708V26H88.8858V5.408H94.5738ZM107.742 26L103.818 5.408H109.578L111.486 21.392H111.558L113.466 5.408H118.362L114.654 26H107.742ZM133.294 16.352H125.23V20.528C125.23 21.752 125.662 22.508 126.418 22.508C127.318 22.508 127.606 21.752 127.606 20.528V17.864H133.294V20.888C133.294 24.776 130.414 26.252 126.418 26.252C122.782 26.252 119.542 24.596 119.542 20.78V10.952C119.542 7.244 121.99 5.156 126.418 5.156C130.054 5.156 133.294 6.524 133.294 10.952V16.352ZM125.23 12.932H127.606V10.124C127.606 9.332 127.21 8.9 126.418 8.9C125.626 8.9 125.23 9.332 125.23 10.124V12.932ZM148.622 12.68H142.934V10.448C142.934 9.584 142.646 8.9 141.746 8.9C140.846 8.9 140.558 9.584 140.558 10.448C140.558 13.976 148.514 13.328 148.514 20.024C148.514 24.092 146.066 26.252 141.314 26.252C137.678 26.252 134.87 24.848 134.87 21.14V17.864H140.558V20.96C140.558 21.824 140.846 22.508 141.746 22.508C142.646 22.508 142.934 21.824 142.934 20.96C142.934 16.064 134.87 17.576 134.87 10.88C134.87 6.776 137.786 5.156 141.53 5.156C145.85 5.156 148.622 6.848 148.622 10.304V12.68ZM151.602 9.152H149.694V5.408H151.602V1.7H157.29V5.408H159.774V9.152H157.29V20.384C157.29 21.608 157.326 22.256 158.658 22.256H159.774V26H155.13C152.286 26 151.602 24.416 151.602 21.716V9.152Z" fill="#D27EFF"/>
</g>
<defs>
<filter id="filter0_d_1_3" x="0.288002" y="0.367996" width="163.486" height="33.884" filterUnits="userSpaceOnUse" color-interpolation-filters="sRGB">
<feFlood flood-opacity="0" result="BackgroundImageFix"/>
<feColorMatrix in="SourceAlpha" type="matrix" values="0 0 0 0 0 0 0 0 0 0 0 0 0 0 0 0 0 0 127 0" result="hardAlpha"/>
<feOffset dy="4"/>
<feGaussianBlur stdDeviation="2"/>
<feComposite in2="hardAlpha" operator="out"/>
<feColorMatrix type="matrix" values="0 0 0 0 0 0 0 0 0 0 0 0 0 0 0 0 0 0 0.25 0"/>
<feBlend mode="normal" in2="BackgroundImageFix" result="effect1_dropShadow_1_3"/>
<feBlend mode="normal" in="SourceGraphic" in2="effect1_dropShadow_1_3" result="shape"/>
</filter>
</defs>
</svg>
